<?xml version="1.0" encoding="UTF-8" standalone="no"?>
<svg width="39px" height="30px" viewBox="0 0 39 30" version="1.1" xmlns="http://www.w3.org/2000/svg" xmlns:xlink="http://www.w3.org/1999/xlink">
    <!-- Generator: Sketch 3.8.3 (29802) - http://www.bohemiancoding.com/sketch -->
    <title>Group</title>
    <desc>Created with Sketch.</desc>
    <defs></defs>
    <g id="Page-1" stroke="none" stroke-width="1" fill="none" fill-rule="evenodd">
        <g id="A4" transform="translate(-32.000000, -1260.000000)" fill="#bbbbbb">
            <g id="Left">
                <g id="Contact" transform="translate(32.000000, 1201.000000)">
                    <g id="fi-mail" transform="translate(0.000000, 59.000000)">
                        <g id="Layer_1">
                            <g id="Group">
                                <path d="M37.472,0.0945 L1.528,0.0945 C0.823,0.0945 0.25,0.668 0.25,1.373 L0.25,3.945 C0.25,4.0635 0.3785,4.1995 0.4835,4.2545 L19.3765,15.046 C19.4255,15.0745 19.4805,15.0875 19.5355,15.0875 C19.5915,15.0875 19.648,15.073 19.6975,15.0435 L38.0195,4.265 C38.1225,4.2075 38.3955,4.0555 38.498,3.9855 C38.622,3.901 38.75,3.8245 38.75,3.673 L38.75,1.3725 C38.75,0.668 38.177,0.0945 37.472,0.0945 L37.472,0.0945 Z" id="Shape"></path>
                                <path d="M38.5905,7.823 C38.4905,7.765 38.3685,7.7675 38.268,7.825 L27.8995,13.9255 C27.8165,13.9735 27.759,14.0585 27.745,14.1545 C27.7325,14.25 27.7625,14.3475 27.827,14.418 L38.197,25.5965 C38.2585,25.663 38.3425,25.6985 38.4305,25.6985 C38.47,25.6985 38.51,25.691 38.5475,25.677 C38.67,25.6285 38.75,25.511 38.75,25.379 L38.75,8.1005 C38.75,7.9855 38.6895,7.88 38.5905,7.823 L38.5905,7.823 Z" id="Shape"></path>
                                <path d="M24.9115,15.974 C24.8095,15.8635 24.6455,15.839 24.516,15.915 L20.36,18.3605 C19.872,18.6475 19.247,18.65 18.756,18.371 L15.0985,16.2815 C14.9775,16.213 14.825,16.2295 14.723,16.3245 L0.834,29.2075 C0.76,29.2765 0.723,29.376 0.734,29.4765 C0.745,29.577 0.8035,29.667 0.891,29.7175 C1.107,29.8445 1.3155,29.905 1.5275,29.905 L37.104,29.905 C37.2315,29.905 37.3465,29.8295 37.3965,29.7125 C37.4475,29.5965 37.4245,29.461 37.3375,29.368 L24.9115,15.974 L24.9115,15.974 Z" id="Shape"></path>
                                <path d="M11.667,14.8005 C11.742,14.732 11.7795,14.631 11.7685,14.5305 C11.7575,14.4295 11.6975,14.34 11.6095,14.289 L0.7265,8.073 C0.6295,8.017 0.507,8.018 0.408,8.075 C0.31,8.132 0.25,8.2375 0.25,8.351 L0.25,24.661 C0.25,24.7875 0.325,24.9025 0.441,24.953 C0.482,24.9715 0.5255,24.9805 0.5695,24.9805 C0.648,24.9805 0.7265,24.951 0.7865,24.895 L11.667,14.8005 L11.667,14.8005 Z" id="Shape"></path>
                            </g>
                        </g>
                    </g>
                </g>
            </g>
        </g>
    </g>
</svg>