<?xml version="1.0" encoding="UTF-8" standalone="no"?>
<svg width="39px" height="39px" viewBox="0 0 39 39" version="1.1" xmlns="http://www.w3.org/2000/svg" xmlns:xlink="http://www.w3.org/1999/xlink">
    <!-- Generator: Sketch 3.8.3 (29802) - http://www.bohemiancoding.com/sketch -->
    <title>Shape</title>
    <desc>Created with Sketch.</desc>
    <defs></defs>
    <g id="Page-1" stroke="none" stroke-width="1" fill="none" fill-rule="evenodd">
        <g id="A4" transform="translate(-32.000000, -1314.000000)" fill="#bbbbbb">
            <g id="Left">
                <g id="Contact" transform="translate(32.000000, 1201.000000)">
                    <g id="fi-social-github" transform="translate(0.000000, 113.000000)">
                        <g id="Layer_1">
                            <path d="M19.499,0.4815 C8.7305,0.4815 0,9.2125 0,19.9825 C0,28.598 5.586,35.907 13.3355,38.484 C14.3115,38.6645 14.6665,38.064 14.6665,37.5455 C14.6665,37.0835 14.6495,35.858 14.641,34.229 C9.2165,35.4085 8.072,31.6145 8.072,31.6145 C7.185,29.362 5.9065,28.763 5.9065,28.763 C4.136,27.554 6.041,27.5775 6.041,27.5775 C7.998,27.716 9.028,29.5865 9.028,29.5865 C10.767,32.5665 13.5925,31.704 14.703,31.208 C14.8795,29.9455 15.3845,29.088 15.941,28.5995 C11.6115,28.1075 7.0595,26.4345 7.0595,18.9625 C7.0595,16.833 7.819,15.092 9.066,13.7285 C8.8665,13.2375 8.196,11.255 9.2575,8.569 C9.2575,8.569 10.8945,8.045 14.6205,10.5695 C16.175,10.135 17.8435,9.918 19.502,9.9115 C21.158,9.9185 22.827,10.135 24.3835,10.5695 C28.107,8.045 29.7415,8.569 29.7415,8.569 C30.8055,11.255 30.1355,13.2375 29.9355,13.7285 C31.1855,15.092 31.9395,16.833 31.9395,18.9625 C31.9395,26.452 27.381,28.102 23.037,28.583 C23.736,29.1855 24.36,30.378 24.36,32.1975 C24.36,34.803 24.3365,36.9055 24.3365,37.545 C24.3365,38.0675 24.687,38.675 25.677,38.4815 C33.418,35.899 39,28.5955 39,19.9825 C39,9.2125 30.2695,0.4815 19.499,0.4815 L19.499,0.4815 Z" id="Shape"></path>
                        </g>
                    </g>
                </g>
            </g>
        </g>
    </g>
</svg>