<?xml version="1.0" encoding="UTF-8" standalone="no"?>
<svg width="35px" height="35px" viewBox="0 0 35 35" version="1.1" xmlns="http://www.w3.org/2000/svg" xmlns:xlink="http://www.w3.org/1999/xlink">
    <!-- Generator: Sketch 3.8.3 (29802) - http://www.bohemiancoding.com/sketch -->
    <title>Shape</title>
    <desc>Created with Sketch.</desc>
    <defs></defs>
    <g id="Page-1" stroke="none" stroke-width="1" fill="none" fill-rule="evenodd">
        <g id="A4" transform="translate(-32.000000, -1201.000000)" fill="#bbbbbb">
            <g id="Left">
                <g id="Contact" transform="translate(32.000000, 1201.000000)">
                    <g id="fi-telephone">
                        <g id="Layer_1">
                            <path d="M34.98,27.6185 C34.8965,27.1025 34.573,26.6615 34.0885,26.3995 L26.921,22.1765 L26.862,22.1435 C26.5725,21.995 26.2375,21.9185 25.8935,21.9185 C25.293,21.9185 24.7195,22.146 24.3215,22.545 L22.206,24.6615 C22.1155,24.7475 21.8205,24.872 21.731,24.8765 C21.7065,24.8745 19.2695,24.699 14.783,20.212 C10.3045,15.7345 10.1145,13.29 10.113,13.29 C10.1155,13.165 10.2385,12.871 10.326,12.78 L12.13,10.9765 C12.7655,10.3395 12.956,9.2835 12.579,8.4655 L8.595,0.969 C8.3055,0.373 7.743,0.005 7.119,0.005 C6.6775,0.005 6.2515,0.188 5.9185,0.5205 L1.001,5.427 C0.5295,5.896 0.1235,6.716 0.035,7.376 C-0.008,7.6915 -0.8805,15.2225 9.4445,25.549 C18.21,34.3135 25.045,34.9945 26.9325,34.9945 L26.9325,34.9945 C27.3385,34.9945 27.575,34.9655 27.6205,34.959 C28.2785,34.871 29.0975,34.466 29.566,33.9965 L34.4795,29.0835 C34.8805,28.6805 35.0635,28.148 34.98,27.6185 L34.98,27.6185 Z" id="Shape"></path>
                        </g>
                    </g>
                </g>
            </g>
        </g>
    </g>
</svg>